<?xml version="1.0" encoding="UTF-8"?>
<svg xmlns="http://www.w3.org/2000/svg" xmlns:xlink="http://www.w3.org/1999/xlink" width="35px" height="21px" viewBox="0 0 34 21" version="1.1">
<g id="surface1">
<path style=" stroke:none;fill-rule:nonzero;fill:rgb(0%,0%,0%);fill-opacity:1;" d="M 8.039062 5.476562 L 14.441406 5.476562 L 14.441406 6 L 8.625 6 L 8.625 9.925781 L 14.09375 9.925781 L 14.09375 10.449219 L 8.625 10.449219 L 8.625 14.761719 L 14.507812 14.761719 L 14.507812 15.28125 L 8.039062 15.28125 Z M 15.011719 5.476562 L 15.691406 5.476562 L 18.707031 9.789062 L 21.789062 5.476562 L 25.976562 0 L 19.09375 10.242188 L 22.644531 15.28125 L 21.933594 15.28125 L 18.707031 10.695312 L 15.464844 15.28125 L 14.773438 15.28125 L 18.347656 10.242188 Z M 22.894531 6 L 22.894531 5.476562 L 30.191406 5.476562 L 30.191406 6 L 26.828125 6 L 26.828125 15.28125 L 26.242188 15.28125 L 26.242188 6 Z M 0.03125 5.476562 L 0.765625 5.476562 L 10.882812 21 L 6.703125 15.28125 L 0.644531 6.21875 L 0.617188 15.28125 L 0.03125 15.28125 Z M 30.128906 14.601562 C 30.042969 14.601562 29.964844 14.550781 29.929688 14.46875 C 29.894531 14.386719 29.914062 14.292969 29.972656 14.230469 C 30.035156 14.167969 30.128906 14.148438 30.207031 14.179688 C 30.289062 14.214844 30.339844 14.292969 30.339844 14.382812 C 30.34375 14.441406 30.320312 14.496094 30.28125 14.539062 C 30.242188 14.578125 30.1875 14.601562 30.128906 14.601562 Z M 30.707031 14.027344 L 31.023438 14.027344 C 31.023438 14.109375 31.054688 14.1875 31.113281 14.242188 C 31.171875 14.296875 31.253906 14.324219 31.332031 14.320312 C 31.535156 14.320312 31.652344 14.191406 31.652344 13.957031 L 31.652344 12.460938 L 31.972656 12.460938 L 31.972656 13.960938 C 31.972656 14.382812 31.730469 14.628906 31.335938 14.628906 C 30.964844 14.628906 30.707031 14.390625 30.707031 14.027344 Z M 32.390625 14.007812 L 32.707031 14.007812 C 32.734375 14.207031 32.925781 14.335938 33.199219 14.335938 C 33.457031 14.335938 33.644531 14.199219 33.644531 14.011719 C 33.644531 13.851562 33.527344 13.753906 33.253906 13.6875 L 32.984375 13.621094 C 32.613281 13.53125 32.441406 13.347656 32.441406 13.035156 C 32.441406 12.660156 32.742188 12.40625 33.191406 12.40625 C 33.609375 12.40625 33.917969 12.660156 33.933594 13.015625 L 33.625 13.015625 C 33.59375 12.820312 33.429688 12.699219 33.1875 12.699219 C 32.933594 12.699219 32.765625 12.824219 32.765625 13.011719 C 32.765625 13.164062 32.875 13.25 33.144531 13.316406 L 33.371094 13.371094 C 33.792969 13.472656 33.96875 13.648438 33.96875 13.96875 C 33.96875 14.371094 33.660156 14.625 33.175781 14.625 C 32.71875 14.625 32.410156 14.382812 32.386719 14.003906 Z M 32.390625 14.007812 "/>
</g>
</svg>
