<?xml version="1.0" encoding="UTF-8"?>
<svg xmlns="http://www.w3.org/2000/svg" xmlns:xlink="http://www.w3.org/1999/xlink" width="35px" height="35px" viewBox="0 0 35 35" version="1.1">
<g id="surface1">
<path style=" stroke:none;fill-rule:nonzero;fill:rgb(0%,0%,0%);fill-opacity:1;" d="M 17.5 2.238281 C 16.925781 2.238281 16.351562 2.390625 15.839844 2.691406 L 5.996094 8.484375 C 4.996094 9.070312 4.375 10.15625 4.375 11.3125 L 4.375 24.074219 C 4.375 25.277344 5.03125 26.378906 6.085938 26.953125 L 9.308594 28.714844 C 9.804688 28.988281 10.34375 29.117188 10.882812 29.117188 C 11.460938 29.117188 12.03125 28.960938 12.550781 28.65625 C 13.558594 28.058594 14.160156 27.003906 14.160156 25.832031 L 14.160156 11.953125 L 11.972656 11.953125 L 11.972656 25.832031 C 11.972656 26.394531 11.597656 26.675781 11.4375 26.769531 C 11.277344 26.867188 10.847656 27.0625 10.355469 26.792969 L 7.136719 25.035156 C 6.78125 24.84375 6.5625 24.476562 6.5625 24.074219 L 6.5625 11.3125 C 6.5625 10.929688 6.769531 10.566406 7.101562 10.371094 L 16.945312 4.574219 C 17.285156 4.375 17.714844 4.375 18.054688 4.574219 L 27.898438 10.371094 C 28.230469 10.566406 28.4375 10.929688 28.4375 11.3125 L 28.4375 24.082031 C 28.4375 24.476562 28.21875 24.847656 27.871094 25.046875 L 18.027344 30.40625 C 17.699219 30.582031 17.300781 30.582031 16.972656 30.40625 L 15.050781 29.355469 C 14.679688 29.816406 14.21875 30.210938 13.671875 30.539062 C 13.496094 30.648438 13.320312 30.734375 13.144531 30.800781 L 15.921875 32.328125 C 16.425781 32.59375 16.953125 32.726562 17.5 32.726562 C 18.046875 32.726562 18.574219 32.59375 19.078125 32.328125 L 28.921875 26.949219 C 29.96875 26.382812 30.625 25.285156 30.625 24.082031 L 30.625 11.3125 C 30.625 10.15625 30.007812 9.070312 29.011719 8.484375 L 19.167969 2.691406 C 18.652344 2.390625 18.074219 2.238281 17.5 2.238281 Z M 20.675781 11.632812 C 17.21875 11.632812 15.464844 12.839844 15.464844 15.214844 C 15.464844 17.90625 18.566406 18.304688 20.054688 18.496094 C 20.269531 18.523438 20.460938 18.546875 20.609375 18.578125 L 21.265625 18.691406 C 23.539062 19.074219 24.0625 19.332031 24.0625 20.0625 C 24.0625 20.417969 24.0625 21.492188 20.675781 21.492188 C 17.800781 21.492188 17.214844 20.636719 17.214844 19.359375 L 15.027344 19.359375 C 15.027344 21.332031 16.007812 23.679688 20.675781 23.679688 C 25.28125 23.679688 26.25 21.710938 26.25 20.0625 C 26.25 17.3125 23.578125 16.859375 21.628906 16.53125 L 21 16.421875 C 20.816406 16.390625 20.589844 16.359375 20.332031 16.328125 C 18.941406 16.148438 17.652344 15.890625 17.652344 15.21875 C 17.652344 14.730469 17.652344 13.824219 20.675781 13.820312 C 22.683594 13.820312 23.707031 14.484375 23.707031 15.785156 L 25.894531 15.785156 C 25.894531 13.78125 24.519531 11.632812 20.675781 11.632812 Z M 20.675781 11.632812 "/>
</g>
</svg>
